<mxfile host="app.diagrams.net" modified="2024-05-13T09:04:19.979Z" agent="Mozilla/5.0 (Windows NT 10.0; Win64; x64) AppleWebKit/537.36 (KHTML, like Gecko) Chrome/124.0.0.0 Safari/537.36" etag="B2h6H-jOGdZQbYvfwL5-" version="24.4.0" type="device">
  <diagram name="Страница — 1" id="gHECEE8ox6brB-BUhbM4">
    <mxGraphModel dx="1434" dy="780" grid="1" gridSize="10" guides="1" tooltips="1" connect="1" arrows="1" fold="1" page="1" pageScale="1" pageWidth="827" pageHeight="1169" math="0" shadow="0">
      <root>
        <mxCell id="0" />
        <mxCell id="1" parent="0" />
        <mxCell id="ffWBu_kIB2Gj1YPOh8JP-1" value="" style="fontColor=#0066CC;verticalAlign=top;verticalLabelPosition=bottom;labelPosition=center;align=center;html=1;outlineConnect=0;fillColor=#CCCCCC;strokeColor=#6881B3;gradientColor=none;gradientDirection=north;strokeWidth=2;shape=mxgraph.networks.pc;" vertex="1" parent="1">
          <mxGeometry x="290" y="260" width="100" height="70" as="geometry" />
        </mxCell>
        <mxCell id="ffWBu_kIB2Gj1YPOh8JP-2" value="" style="image;html=1;image=img/lib/clip_art/computers/Server_128x128.png" vertex="1" parent="1">
          <mxGeometry x="200" y="620" width="80" height="80" as="geometry" />
        </mxCell>
        <mxCell id="ffWBu_kIB2Gj1YPOh8JP-3" value="" style="image;html=1;image=img/lib/clip_art/computers/Server_128x128.png" vertex="1" parent="1">
          <mxGeometry x="414" y="620" width="80" height="80" as="geometry" />
        </mxCell>
        <mxCell id="ffWBu_kIB2Gj1YPOh8JP-5" value="" style="image;html=1;image=img/lib/clip_art/networking/Router_128x128.png" vertex="1" parent="1">
          <mxGeometry x="300" y="430" width="80" height="80" as="geometry" />
        </mxCell>
        <mxCell id="ffWBu_kIB2Gj1YPOh8JP-6" value="" style="endArrow=none;html=1;rounded=0;" edge="1" parent="1" source="ffWBu_kIB2Gj1YPOh8JP-2" target="ffWBu_kIB2Gj1YPOh8JP-5">
          <mxGeometry width="50" height="50" relative="1" as="geometry">
            <mxPoint x="390" y="430" as="sourcePoint" />
            <mxPoint x="440" y="380" as="targetPoint" />
          </mxGeometry>
        </mxCell>
        <mxCell id="ffWBu_kIB2Gj1YPOh8JP-7" value="" style="endArrow=none;html=1;rounded=0;" edge="1" parent="1" source="ffWBu_kIB2Gj1YPOh8JP-5" target="ffWBu_kIB2Gj1YPOh8JP-3">
          <mxGeometry width="50" height="50" relative="1" as="geometry">
            <mxPoint x="390" y="430" as="sourcePoint" />
            <mxPoint x="440" y="380" as="targetPoint" />
          </mxGeometry>
        </mxCell>
        <mxCell id="ffWBu_kIB2Gj1YPOh8JP-8" value="" style="endArrow=none;html=1;rounded=0;" edge="1" parent="1" source="ffWBu_kIB2Gj1YPOh8JP-5" target="ffWBu_kIB2Gj1YPOh8JP-1">
          <mxGeometry width="50" height="50" relative="1" as="geometry">
            <mxPoint x="390" y="430" as="sourcePoint" />
            <mxPoint x="440" y="380" as="targetPoint" />
          </mxGeometry>
        </mxCell>
        <mxCell id="ffWBu_kIB2Gj1YPOh8JP-9" value="&lt;font style=&quot;font-size: 18px;&quot;&gt;&lt;i&gt;NetCatServices&lt;/i&gt;&lt;/font&gt;" style="text;align=center;fontStyle=1;verticalAlign=middle;spacingLeft=3;spacingRight=3;strokeColor=none;rotatable=0;points=[[0,0.5],[1,0.5]];portConstraint=eastwest;html=1;" vertex="1" parent="1">
          <mxGeometry x="280" y="40" width="120" height="110" as="geometry" />
        </mxCell>
        <mxCell id="ffWBu_kIB2Gj1YPOh8JP-10" value="192.168.13.1" style="text;align=center;fontStyle=1;verticalAlign=middle;spacingLeft=3;spacingRight=3;strokeColor=none;rotatable=0;points=[[0,0.5],[1,0.5]];portConstraint=eastwest;html=1;" vertex="1" parent="1">
          <mxGeometry x="300" y="220" width="80" height="26" as="geometry" />
        </mxCell>
        <mxCell id="ffWBu_kIB2Gj1YPOh8JP-11" value="192.168.13.2" style="text;align=center;fontStyle=1;verticalAlign=middle;spacingLeft=3;spacingRight=3;strokeColor=none;rotatable=0;points=[[0,0.5],[1,0.5]];portConstraint=eastwest;html=1;" vertex="1" parent="1">
          <mxGeometry x="400" y="457" width="80" height="26" as="geometry" />
        </mxCell>
        <mxCell id="ffWBu_kIB2Gj1YPOh8JP-12" value="192.168.13.4" style="text;align=center;fontStyle=1;verticalAlign=middle;spacingLeft=3;spacingRight=3;strokeColor=none;rotatable=0;points=[[0,0.5],[1,0.5]];portConstraint=eastwest;html=1;" vertex="1" parent="1">
          <mxGeometry x="520" y="647" width="80" height="26" as="geometry" />
        </mxCell>
        <mxCell id="ffWBu_kIB2Gj1YPOh8JP-13" value="192.168.13.3" style="text;align=center;fontStyle=1;verticalAlign=middle;spacingLeft=3;spacingRight=3;strokeColor=none;rotatable=0;points=[[0,0.5],[1,0.5]];portConstraint=eastwest;html=1;" vertex="1" parent="1">
          <mxGeometry x="110" y="647" width="80" height="26" as="geometry" />
        </mxCell>
      </root>
    </mxGraphModel>
  </diagram>
</mxfile>
